<svg width="200" height="36" viewBox="0 0 200 36" fill="none" xmlns="http://www.w3.org/2000/svg">
<g clip-path="url(#clip0_5_145)">
<path d="M0.000976562 0C1.92164 0.0976109 3.8423 0.234127 5.76296 0.342854C7.26994 0.437339 8.77717 0.52997 10.2846 0.62075C8.46962 4.20746 6.65324 7.79347 4.8355 11.3788C3.22215 7.58598 1.61064 3.79305 0.000976562 0ZM34.6926 0.62075C35.8474 2.90019 37.0019 5.17998 38.156 7.46011C38.8209 8.76275 39.4698 10.0751 40.1469 11.3725C41.7543 7.58042 43.364 3.79003 44.9759 0.00138951C43.7256 0.0555792 42.4771 0.1518 41.2276 0.22058C39.0491 0.355359 36.8705 0.488749 34.6918 0.62075H34.6926ZM28.8829 11.945C31.3453 11.8927 33.8077 11.837 36.2701 11.7779C37.24 11.7473 38.2107 11.7463 39.1803 11.706C37.4566 8.05701 35.7329 4.40743 34.0092 0.757266C33.884 0.985835 33.791 1.2283 33.6768 1.46243C32.0797 4.95558 30.4815 8.44931 28.8822 11.9436L28.8829 11.945ZM5.7999 11.7123C9.23013 11.7859 12.6607 11.871 16.091 11.9436C14.3897 8.21078 12.683 4.48014 10.9709 0.751708C9.69108 3.44556 8.42456 6.14566 7.14732 8.84056C6.70224 9.79999 6.23685 10.7504 5.7999 11.7123ZM10.5757 23.6389C12.3262 20.0012 14.0745 16.363 15.8206 12.7242C12.3863 12.6174 8.95126 12.5074 5.51549 12.3941C7.20715 16.142 8.89438 19.8903 10.5772 23.6389H10.5757ZM34.3993 23.6368C36.0826 19.8884 37.7678 16.1412 39.4551 12.3952C36.02 12.5029 32.585 12.6126 29.15 12.7245C30.9044 16.3604 32.6415 20.0029 34.4004 23.6368H34.3993ZM11.2479 23.833C13.638 23.8945 16.0282 23.9393 18.4186 24.0026C19.4599 24.0123 20.5011 24.0613 21.5427 24.063C19.8382 20.335 18.1321 16.6079 16.4245 12.8815C16.3188 13.0785 16.2324 13.2841 16.1338 13.4842C14.5062 16.9343 12.8779 20.3839 11.249 23.833H11.2479ZM23.4301 24.062C23.9195 24.0703 24.4082 24.0446 24.8972 24.038C27.8395 23.9685 30.782 23.9004 33.7248 23.8337C32.34 20.8915 30.9523 17.9504 29.5618 15.0105C29.219 14.3026 28.9014 13.5835 28.5468 12.8815C26.8436 16.6093 25.1384 20.3361 23.4312 24.062H23.4301ZM16.0729 35.1121C16.1752 35.3278 16.2575 35.554 16.3883 35.7568C16.5774 35.4578 16.703 35.1274 16.8684 34.8151C18.4567 31.5172 20.0335 28.2151 21.6295 24.9186C21.5686 24.9072 21.5068 24.9001 21.4448 24.8974C18.0737 24.7873 14.7029 24.6834 11.3318 24.5681C12.9077 28.0846 14.4881 31.5993 16.0729 35.1121ZM27.2677 33.0672C27.7073 33.9613 28.1172 34.8693 28.5767 35.7534C28.6979 35.6144 28.747 35.4362 28.8275 35.2761C30.4387 31.7098 32.045 28.1407 33.6465 24.5688C30.2115 24.6886 26.7802 24.7834 23.3477 24.9085C24.6543 27.6282 25.9609 30.3477 27.2677 33.0672Z" fill="url(#paint0_linear_5_145)"/>
<path d="M27.6997 35.796C25.9694 32.5404 24.2389 29.2851 22.5084 26.03C20.7756 29.2849 19.0445 32.5402 17.3152 35.796H27.6997Z" fill="url(#paint1_radial_5_145)"/>
<g opacity="0.18">
<path d="M27.6997 35.796C25.9694 32.5404 24.2389 29.2851 22.5084 26.03C20.7756 29.2849 19.0445 32.5402 17.3152 35.796H27.6997Z" fill="black"/>
</g>
<path d="M172.502 19.7632C173.628 18.0934 175.636 17.3427 177.534 17.2364C179.95 17.0825 182.573 17.6929 184.322 19.5266C184.061 20.0623 183.831 20.6149 183.588 21.1593C182.456 20.1401 181.076 19.3964 179.573 19.214C178.002 19.016 176.239 19.0466 174.919 20.0692C173.577 21.0509 173.314 23.3717 174.546 24.5503C175.617 25.4646 177.058 25.5848 178.366 25.8804C180.139 26.2406 182.056 26.5616 183.467 27.8308C184.953 29.2693 184.947 31.8704 183.821 33.5371C182.842 34.9787 181.152 35.7054 179.51 35.91C176.681 36.2327 173.626 35.6883 171.368 33.7938C171.618 33.2175 171.866 32.6395 172.132 32.0698C173.513 33.1414 175.146 33.907 176.885 34.0321C178.371 34.1363 180.009 34.1842 181.31 33.3155C182.583 32.4856 182.93 30.4288 181.921 29.254C181.053 28.4106 179.818 28.2119 178.699 27.9628C176.823 27.5418 174.786 27.3577 173.205 26.1187C171.333 24.6781 171.239 21.656 172.502 19.7632Z" fill="white"/>
<path d="M44.9756 17.4545C45.7143 17.4493 46.453 17.4628 47.1917 17.4392C49.3953 22.6279 51.4704 27.8777 53.6791 33.0629C55.834 27.8572 57.9937 22.6544 60.1584 17.4545C60.8809 17.451 61.6052 17.4528 62.3277 17.4545C59.7513 23.5557 57.1726 29.656 54.5918 35.7553C53.9491 35.7604 53.3076 35.7604 52.6671 35.7553C50.1062 29.6532 47.5424 23.5529 44.9756 17.4545Z" fill="white"/>
<path d="M65.3512 17.4547C66.0444 17.4528 66.7388 17.4522 67.4344 17.4529C67.4392 23.5559 67.4506 29.6591 67.4296 35.7624C66.7363 35.7572 66.043 35.759 65.3497 35.759C65.3497 29.6575 65.3502 23.5561 65.3512 17.4547Z" fill="white"/>
<path d="M70.6316 17.4678C75.4813 17.4331 80.3291 17.4629 85.1773 17.4529C85.1788 18.061 85.1788 18.6699 85.1773 19.2797C83.1089 19.2832 81.0405 19.2797 78.9721 19.2797C78.9686 24.7728 78.9686 30.2652 78.9721 35.7572C78.2769 35.7572 77.5836 35.7572 76.8904 35.7606C76.8693 30.2659 76.8904 24.7726 76.8808 19.2779C74.8008 19.2779 72.7214 19.2779 70.6427 19.2779C70.6412 18.676 70.6412 18.0712 70.6316 17.4678Z" fill="white"/>
<path d="M86.8135 17.4458C91.655 17.4628 96.4962 17.4458 101.338 17.4527C101.34 18.0609 101.34 18.6698 101.338 19.2796C99.2678 19.2812 97.1994 19.2812 95.1325 19.2796C95.1291 24.7726 95.128 30.2657 95.1292 35.7588C94.4359 35.7588 93.7411 35.7553 93.046 35.7605C93.0331 30.2676 93.046 24.7725 93.0412 19.2796C90.9615 19.2779 88.8822 19.2779 86.8035 19.2796C86.7968 18.6661 86.7939 18.0561 86.8135 17.4458Z" fill="white"/>
<path d="M108.77 17.456C109.376 17.4512 109.984 17.4512 110.594 17.456C113.228 23.5589 115.866 29.661 118.505 35.7624C117.778 35.7572 117.051 35.7725 116.326 35.7471C115.693 34.1888 115.016 32.6507 114.375 31.0959C111.272 31.0806 108.17 31.1059 105.067 31.084C104.398 32.634 103.779 34.2076 103.12 35.7624C102.408 35.7589 101.697 35.7624 100.988 35.7589C103.569 29.6529 106.181 23.5593 108.77 17.456ZM105.801 29.3159C108.421 29.3145 111.04 29.3145 113.66 29.3159C112.334 26.1706 111.008 23.0258 109.682 19.8814C108.389 23.026 107.095 26.1708 105.801 29.3159Z" fill="white"/>
<path d="M118.396 17.4577C119.148 17.4528 119.901 17.4424 120.655 17.4663C122.79 22.6685 124.921 27.876 127.094 33.0632C129.26 27.8645 131.422 22.6622 133.578 17.4563C134.302 17.4514 135.026 17.4531 135.751 17.4563C133.173 23.5561 130.594 29.6563 128.012 35.7571C127.369 35.7623 126.728 35.7623 126.086 35.7571C123.526 29.6561 120.963 23.5563 118.396 17.4577Z" fill="white"/>
<path d="M138.776 17.4546C142.538 17.4546 146.301 17.446 150.065 17.4595C150.061 18.0475 150.059 18.6373 150.059 19.229C146.978 19.2276 143.897 19.2276 140.815 19.229C140.814 21.3433 140.814 23.4589 140.815 25.5758C143.706 25.5706 146.598 25.5911 149.489 25.5657C149.521 26.1691 149.515 26.7756 149.508 27.3825C146.611 27.3843 143.713 27.3849 140.815 27.3842C140.814 29.5763 140.814 31.7691 140.815 33.9624C143.9 33.9742 146.984 33.9436 150.071 33.9776C150.059 34.5709 150.058 35.1639 150.061 35.7589C146.3 35.7608 142.538 35.7608 138.776 35.7589C138.775 29.6575 138.775 23.5561 138.776 17.4546Z" fill="white"/>
<path d="M154.263 17.4547C156.695 17.4528 159.128 17.4522 161.56 17.4529C162.966 17.4529 164.441 17.7367 165.584 18.6361C166.503 19.3409 167.096 20.4479 167.253 21.6158C167.455 23.0438 167.259 24.6209 166.357 25.77C165.715 26.6304 164.752 27.1442 163.772 27.4638C164.651 27.7358 165.393 28.3951 165.756 29.2739C166.653 31.4276 167.52 33.5973 168.403 35.7607C167.646 35.7607 166.889 35.7489 166.134 35.7725C165.385 34.0009 164.705 32.1995 163.986 30.4164C163.682 29.6661 163.436 28.7921 162.72 28.3492C162.02 27.9421 161.194 27.8678 160.41 27.8473C159.058 27.8456 157.706 27.8462 156.355 27.849C156.337 30.489 156.387 33.1325 156.329 35.7725C155.64 35.7506 154.952 35.759 154.265 35.759C154.262 29.6575 154.262 23.5561 154.263 17.4547ZM156.353 19.229C156.351 21.5344 156.351 23.8404 156.353 26.1469C158.085 26.1403 159.818 26.1604 161.55 26.1368C162.786 26.1021 164.178 25.6852 164.834 24.5042C165.419 23.3735 165.418 21.8989 164.795 20.7873C164.119 19.6549 162.755 19.2711 161.544 19.2374C159.815 19.2158 158.084 19.2318 156.353 19.229Z" fill="white"/>
<path d="M188.706 17.4645C192.469 17.4392 196.234 17.4593 199.997 17.4544V19.226C196.916 19.2274 193.835 19.2274 190.753 19.226C190.75 21.3404 190.75 23.4559 190.753 25.5728C193.655 25.5881 196.559 25.5475 199.461 25.5947C199.445 26.188 199.445 26.7831 199.447 27.3795C196.549 27.3813 193.651 27.3813 190.753 27.3795C190.75 29.5735 190.75 31.7674 190.753 33.9611C193.836 33.9628 196.919 33.9559 200.002 33.9646C199.999 34.561 199.999 35.1578 199.999 35.756C196.237 35.756 192.474 35.7612 188.712 35.756C188.708 29.6589 188.72 23.5609 188.706 17.4645Z" fill="white"/>
</g>
<defs>
<linearGradient id="paint0_linear_5_145" x1="22.4879" y1="0.822224" x2="22.4879" y2="36.2914" gradientUnits="userSpaceOnUse">
<stop stop-color="#A93636"/>
<stop offset="0.85"/>
</linearGradient>
<radialGradient id="paint1_radial_5_145" cx="0" cy="0" r="1" gradientUnits="userSpaceOnUse" gradientTransform="translate(22.5076 30.913) scale(4.43931 4.17503)">
<stop stop-color="white"/>
<stop offset="1" stop-color="white"/>
</radialGradient>
<clipPath id="clip0_5_145">
<rect width="200" height="36" fill="white"/>
</clipPath>
</defs>
</svg>
